<?xml version="1.0" encoding="utf-8"?>
<!-- Generator: Adobe Illustrator 27.5.0, SVG Export Plug-In . SVG Version: 6.00 Build 0)  -->
<svg version="1.1" xmlns="http://www.w3.org/2000/svg" xmlns:xlink="http://www.w3.org/1999/xlink" x="0px" y="0px"
	 viewBox="0 0 500 500" style="enable-background:new 0 0 500 500;" xml:space="preserve">
<g id="BACKGROUND">
</g>
<g id="OBJECTS">
	<g>
		<g>
			<g>
				<path style="fill:#D65656;" d="M313.929,160.774L313.929,160.774c1.961,0.867,2.857,3.18,1.99,5.141l-56.862,128.676
					c-0.867,1.961-3.18,2.857-5.142,1.99l0,0c-1.96-0.867-2.857-3.181-1.99-5.142l56.862-128.676
					C309.654,160.803,311.968,159.907,313.929,160.774z"/>
				<path style="fill:#910909;" d="M313.929,160.774c-1.961-0.867-4.275,0.029-5.142,1.99l-11.68,26.432
					c2.043,1.765,4.126,3.482,6.258,5.13l12.554-28.41C316.786,163.954,315.891,161.641,313.929,160.774z"/>
				<path style="fill:#C5BADD;" d="M323.885,168.719c1.69-3.452,2.27-7.324,2.805-11.129c0.535-3.805,1.065-7.677,2.666-11.169
					c1.808-3.946,4.88-7.171,8.135-10.042c-10.99,0.286-21.777,5.312-29.065,13.544c-3.489,3.941-6.415,9.706-6.114,15.061
					c0.218,3.89,2.211,7.757,5.552,9.76C313.667,178.226,321.144,174.322,323.885,168.719z"/>
			</g>
			<path style="fill:#00FCC1;" d="M308.426,149.924c-0.096,0.108-0.189,0.223-0.284,0.334c0.283,0.235,0.66,0.415,1.177,0.51
				c0.722,0.134,1.603-0.327,2.307-0.125c0.019-0.002,0.038-0.012,0.057-0.012c1.293,0.031,2.313,1.397,3.531,1.677
				c0.16,0.003,0.319,0.066,0.414,0.218c0.011,0.017,0.022,0.035,0.033,0.052c0.054,0.086,0.072,0.17,0.072,0.251
				c0.622,2.058-2.244,3.958,2.066,5.106c2.207,0.588,4.556-0.178,6.744,0.663c0.656,0.252,1.272,0.618,1.843,1.066
				c0.106-0.691,0.208-1.383,0.305-2.073c0.535-3.805,1.065-7.677,2.666-11.169c1.808-3.946,4.88-7.171,8.135-10.042
				C326.5,136.665,315.714,141.691,308.426,149.924z"/>
			<path style="opacity:0.3;fill:#796D9B;" d="M312.839,176.046c4.543-0.083,9.05-3.247,11.046-7.326
				c1.689-3.452,2.27-7.324,2.805-11.129c0.535-3.805,1.065-7.676,2.666-11.169c0.552-1.204,1.232-2.334,1.989-3.415
				C319.689,150.782,312.354,162.485,312.839,176.046z"/>
		</g>
		<g>
			<g>
				<path style="fill:#51518E;" d="M328.035,267.942c3.186-17.725-10.438-34.015-28.447-34.015h-166.64
					c-18.265,0-31.908,16.796-28.165,34.673l16.363,93.058h190.045L328.035,267.942z"/>
				<path style="fill:#6565AA;" d="M107.937,248.467c4.905-8.588,14.139-14.54,25.011-14.54h166.64
					c10.87,0,20.141,5.937,25.083,14.54H107.937z"/>
			</g>
			<g>
				<g>
					<path style="fill:#48487C;" d="M315.97,419.032h82.858c5.224,0,9.458-4.235,9.458-9.458v-95.653
						c0-5.224-4.235-9.458-9.458-9.458h-96.31c-5.224,0-9.458,4.235-9.458,9.458v82.201
						C293.06,408.775,303.317,419.032,315.97,419.032z"/>
					<path style="fill:#6565AA;" d="M293.06,333.405v-19.485c0-5.224,4.235-9.458,9.458-9.458h96.31
						c5.224,0,9.458,4.235,9.458,9.458v19.485H293.06z"/>
				</g>
				<rect x="169.186" y="354.881" style="fill:#343466;" width="209.315" height="64.151"/>
			</g>
		</g>
		<g>
			<g>
				<path style="fill:#D65656;" d="M355.614,366.821c3.319,6.123,7.442,27.65,10.833,52.21h28.582
					c-0.485-3.681-1.009-7.483-1.571-11.326c-7.158-48.98-13.36-57.582-19.101-62.194c-27.621-22.196-58.083-22.938-93.356-23.796
					c-4.495-0.109-9.143-0.223-13.864-0.383l-0.96,28.324c4.856,0.165,9.573,0.279,14.134,0.391
					C312.376,350.829,335.687,351.396,355.614,366.821z"/>
				<path style="fill:#D65656;" d="M355.266,366.233C355.266,366.233,355.266,366.233,355.266,366.233
					S355.266,366.233,355.266,366.233z"/>
			</g>
			<g>
				<path style="fill:#D65656;" d="M294.367,366.821c3.319,6.123,7.442,27.65,10.833,52.21h28.582
					c-0.485-3.681-1.009-7.483-1.571-11.325c-7.157-48.98-13.36-57.582-19.1-62.194c-27.621-22.196-58.083-22.938-93.356-23.796
					c-4.495-0.109-9.143-0.223-13.864-0.383l-0.96,28.324c4.856,0.165,9.573,0.279,14.134,0.391
					C251.129,350.829,274.44,351.396,294.367,366.821z"/>
				<path style="fill:#D65656;" d="M294.02,366.233C294.02,366.233,294.02,366.233,294.02,366.233S294.02,366.233,294.02,366.233z"
					/>
			</g>
			<path style="fill:#D65656;" d="M210.146,354.676h59.652v-50.487H195.92v36.261C195.92,348.306,202.289,354.676,210.146,354.676z"
				/>
			<g>
				<path style="fill:#ECB6C3;" d="M260.763,206.767c-7.839,0.561-11.444,9.134-7.7,18.31l26.617,65.23
					c3.183,7.697,11.086,12.411,16.912,10.086l0,0c4.559-1.819,6.406-7.453,4.444-13.563l-22.715-66.184
					C275.485,212.38,267.751,206.267,260.763,206.767L260.763,206.767z"/>
				<path style="fill:#7178C9;" d="M261.525,243.939c1.156-0.714,2.34-1.377,3.526-2.028c2.709-1.488,5.418-2.868,8.395-3.708
					c3.584-1.012,7.288-1.308,11.024-1.098l-7.29-20.416c-3.353-9.389-11.465-16.391-18.416-15.897l0,0
					c-7.799,0.554-10.866,10.223-6.55,20.652L261.525,243.939z"/>
			</g>
			<g>
				<g>
					<path style="fill:#8087DE;" d="M271.172,310.784c-4.376-12.11-4.979-25.466-4.118-38.396
						c0.996-14.958,3.827-29.763,4.475-44.74c0.303-7.007,0.064-14.306-3.064-20.584c-3.681-7.39-11.958-8.883-19.463-10.096
						c-7.93-1.281-16.007-1.462-24.012-0.911c-7.06,0.486-14.937,0.452-21.035,4.474c-3.687,2.432-6.641,5.882-8.816,9.726
						c-5.127,9.063-4.408,18.012-3.401,27.926c1.13,11.127,2.089,22.326,1.496,33.518c-0.724,13.655-3.891,27.371-11.417,39
						c15.236,4.827,31.08,7.751,47.041,8.613c7.863,0.425,15.754,0.349,23.606-0.254c1.992-0.153,20.709-3.396,21.055-2.675
						C272.638,314.553,271.859,312.684,271.172,310.784z"/>
				</g>
			</g>
			<path style="fill:#ECB6C3;" d="M218.454,196.629c5.586-1.486,11.663-2.071,18.234-1.99c8.257,0.102,16.013,2.042,22.93,4.814
				c-1.05,10.301-9.702,19.677-20.386,19.279C228.251,218.324,219.129,207.488,218.454,196.629z"/>
			<path style="fill:#E59CAD;" d="M233.831,205.801h10.885c4.309,0,7.803-3.493,7.803-7.803v-26.234h-26.49v26.234
				C226.028,202.308,229.522,205.801,233.831,205.801z"/>
			<path style="fill:#E59CAD;" d="M230.839,196.233c2.61,1.761,5.567,3.004,8.635,3.702c3.028,0.689,6.368,0.954,9.398,0.142
				c1.357-0.364,2.546-0.962,3.637-1.699c0.006-0.126,0.01-0.252,0.01-0.38v-26.234h-26.49v19.984
				C227.361,193.493,229.007,194.997,230.839,196.233z"/>
			<g>
				<path style="fill:#EBB5C2;" d="M267.728,161.539c0,2.994,0.363,7.505,3.544,7.505s6.977-4.72,6.977-7.714
					c0-2.994-1.582-6.463-4.762-6.463S267.728,158.545,267.728,161.539z"/>
				<path style="fill:#E59CAD;" d="M268.236,163.048c0,2.119,0.257,5.313,2.508,5.313c2.251,0,4.938-3.341,4.938-5.46
					c0-2.119-1.12-4.575-3.371-4.575C270.061,158.325,268.236,160.928,268.236,163.048z"/>
				<g>
					<g>
						<path style="fill:#B15373;" d="M271.177,163.463c1.31-0.638,2.388-1.617,3.117-2.882c0.114-0.198-0.192-0.376-0.305-0.179
							c-0.7,1.216-1.731,2.142-2.99,2.755C270.793,163.257,270.973,163.562,271.177,163.463L271.177,163.463z"/>
					</g>
				</g>
				<g>
					<g>
						<path style="fill:#B15373;" d="M272.662,162.752c0.526-0.182,1.12,0.108,1.207,0.677c0.034,0.224,0.375,0.129,0.341-0.094
							c-0.115-0.753-0.948-1.164-1.642-0.924C272.354,162.485,272.446,162.826,272.662,162.752L272.662,162.752z"/>
					</g>
				</g>
			</g>
			<path style="fill:#ECB6C3;" d="M215.648,161.724c1.624,19.146,14.425,33.163,28.748,33.163c14.323,0,27.098-14.016,28.689-33.163
				c1.791-21.56-1.319-40.442-28.755-41.139C226.568,120.134,213.819,140.165,215.648,161.724z"/>
			<path style="fill:#303055;" d="M241.19,165.198c0,1.215,1.047,2.2,2.338,2.2c1.291,0,2.338-0.985,2.338-2.2
				s-1.047-2.201-2.338-2.201C242.237,162.998,241.19,163.983,241.19,165.198z"/>
			<path style="fill:#303055;" d="M262.264,165.198c0,1.215,1.047,2.2,2.338,2.2c1.291,0,2.338-0.985,2.338-2.2
				s-1.047-2.201-2.338-2.201C263.311,162.998,262.264,163.983,262.264,165.198z"/>
			<path style="fill:#E59CAD;" d="M270.764,140.968c-0.037-0.086-0.137-0.167-0.245-0.129c-1.086,0.38-2.304,0.421-3.272,1.043
				c-22.042,5.751-32.769-3.661-32.769-3.661c-2.644,7.149-8.548,8.246-11.498,8.337c3.181-14.696,14.471-25.969,28.672-25.972
				c0.252,0,0.502,0.003,0.752,0.01c9.76,0.268,17.599,7.694,18.15,16.87L270.764,140.968z"/>
			<path style="fill:#414071;" d="M233.961,133.867c-0.398-1.154-1.786-2.464-2.577-3.395c-1.028-1.212-2.144-2.353-3.336-3.412
				c-0.897-0.797-1.95-1.588-3.164-1.576c-1.176,0.012-2.194,0.778-3.053,1.565c-5.604,5.136-8.518,12.673-8.919,20.163
				c-0.208,3.895,0.22,7.803,1.085,11.6c0.137,0.599,0.292,1.197,0.459,1.792h10.15c0.028-3.881,0.338-7.839,2.367-11.096
				c0.781-1.254,1.929-2.158,2.772-3.33c0.938-1.303,1.69-2.8,2.271-4.295c0.062-0.159,0.122-0.318,0.181-0.478
				c0.472-1.287,0.736-2.648,1.205-3.93C233.84,136.283,234.416,135.187,233.961,133.867z"/>
			<g>
				<linearGradient id="SVGID_1_" gradientUnits="userSpaceOnUse" x1="219.2417" y1="134.5688" x2="273.5661" y2="134.5688">
					<stop  offset="0" style="stop-color:#414071"/>
					<stop  offset="1" style="stop-color:#7C84FF"/>
				</linearGradient>
				<path style="fill:url(#SVGID_1_);" d="M272.279,135.988c0.008-0.033,0.019-0.063,0.028-0.095
					c-0.078-0.302-0.161-0.603-0.254-0.901c-0.695-2.23-1.827-4.384-2.967-6.417c-1.011-1.803-2.147-3.53-3.382-5.187
					c-0.766-0.817-1.502-1.693-2.344-2.369c-3.862-3.097-8.547-5.009-13.296-6.272c-6.027-1.604-12.916-0.292-18.39,2.515
					c-2.621,1.344-5.146,2.947-7.348,4.913c-1.552,1.385-5.191,4.667-5.083,7c0.104,2.245,4.378,4.775,6.068,5.901
					c2.546,1.697,5.309,3.082,8.167,4.168c9.048,3.439,33.707-2.818,35.039-2.401c0,0,2.283,6.871,2.559,10.163
					c0.214,2.547,0.325,5.403,0.603,8.078c2.717-4.601,1.885-10.719,1.239-15.533C272.799,138.652,272.071,136.828,272.279,135.988z
					"/>
			</g>
			<g>
				<path style="fill:#303055;" d="M272.286,135.807c-0.071-0.273-0.148-0.545-0.233-0.815c-0.406-1.303-0.963-2.579-1.582-3.822
					c-1.893,1.381-3.903,2.504-5.47,2.838c-10.176,2.173-32.693,3.757-39.989,1.173c1.354,0.964,4.207,3.149,7.784,4.248
					c7.866,2.416,20.42-0.087,24.343-0.619c1.075-0.146,9.601-1.301,11.38-1.966c0,0,2.283,6.871,2.559,10.163
					c0.214,2.547,0.325,5.403,0.603,8.078c2.717-4.601,1.885-10.719,1.239-15.533C272.736,138.184,272.724,137.78,272.286,135.807z"
					/>
			</g>
			<g>
				<g>
					<path style="fill:#305553;" d="M236.125,155.42c1.517-0.742,2.999-1.369,4.679-1.618c1.531-0.227,3.038,0.074,4.557-0.103
						c0.718-0.083,1.049-0.97,0.379-1.399c-3.062-1.96-7.984-0.143-10.176,2.393C235.217,155.094,235.645,155.654,236.125,155.42
						L236.125,155.42z"/>
				</g>
			</g>
			<g>
				<g>
					<path style="fill:#305553;" d="M259.979,152.269c1.512,0.594,3.371,0.173,4.975,0.597c1.529,0.404,2.73,1.728,4.323,1.488
						c0.382-0.058,0.76-0.557,0.718-0.943c-0.229-2.112-3.067-2.908-4.888-3.187c-1.742-0.267-4.321-0.26-5.399,1.378
						C259.531,151.869,259.723,152.168,259.979,152.269L259.979,152.269z"/>
				</g>
			</g>
			<g>
				<g>
					<path style="fill:#305553;" d="M234.812,174.354c3.829,2.501,8.858,2.83,12.716,0.14c5.082-3.544,5.504-10.288,5.693-15.899
						c0.016-0.471-0.398-0.814-0.838-0.838c-4.497-0.242-8.996-0.451-13.5-0.503c-2.054-0.024-5.668-0.828-7.108,1.172
						c-1.416,1.966-1.058,6.612-0.794,8.771c0.354,2.895,1.424,5.144,3.662,7.027c0.82,0.69,2.012-0.49,1.185-1.185
						c-2.496-2.1-3.262-4.892-3.296-8.079c-0.01-0.965-0.03-4.352,0.447-5.074c0.801-1.213,2.443-0.968,3.65-0.968
						c5.256,0.001,10.506,0.233,15.753,0.516c-0.279-0.279-0.559-0.559-0.838-0.838c-0.152,4.504-0.281,9.474-3.428,13.025
						c-3.296,3.719-8.426,3.919-12.458,1.286C234.752,172.315,233.911,173.766,234.812,174.354z"/>
				</g>
			</g>
			<g>
				<g>
					<path style="fill:#305553;" d="M272.947,172.879c-4.021,2.649-9.152,2.474-12.464-1.232c-3.164-3.54-3.313-8.51-3.482-13.011
						c-0.279,0.279-0.559,0.559-0.838,0.838c5.246-0.304,10.495-0.556,15.751-0.579c1.262-0.005,2.801-0.343,3.656,0.95
						c0.583,0.882,0.397,3.306,0.435,4.319c0.13,3.477-0.486,6.52-3.228,8.846c-0.824,0.699,0.367,1.88,1.185,1.185
						c1.99-1.688,3.142-3.702,3.552-6.3c0.383-2.423,0.809-7.343-0.744-9.509c-1.334-1.861-4.46-1.178-6.36-1.155
						c-4.754,0.057-9.502,0.292-14.248,0.567c-0.439,0.025-0.856,0.363-0.838,0.838c0.212,5.617,0.659,12.354,5.754,15.878
						c3.868,2.675,8.896,2.329,12.715-0.188C274.691,173.736,273.852,172.283,272.947,172.879z"/>
				</g>
			</g>
			<g>
				<g>
					<path style="fill:#A85A6E;" d="M253.766,161.586c-0.272,2.135,0.686,4.465,1.25,6.51c0.192,0.697,1.055,2.389,0.237,2.87
						c-0.549,0.323-1.046-0.089-1.595,0.54c-0.187,0.214-0.329,0.536-0.218,0.824c0.026,0.067,0.052,0.134,0.077,0.201
						c0.217,0.562,0.62,0.895,1.227,0.935c2.215,0.145,3.562-1.032,3.153-3.289c-0.302-1.667-0.931-3.371-1.429-4.993
						c-0.439-1.431-0.803-2.816-1.75-3.992C254.376,160.764,253.819,161.169,253.766,161.586L253.766,161.586z"/>
				</g>
			</g>
			<g>
				<g>
					<path style="fill:#A85A6E;" d="M243.873,180.326c2.879,3.182,9.22,3.505,12.861,1.61c1.112-0.578,0.291-2.09-0.801-1.899
						c-1.993,0.348-3.803,0.85-5.85,0.711c-1.998-0.136-3.828-0.841-5.786-1.152C243.876,179.529,243.563,179.983,243.873,180.326
						L243.873,180.326z"/>
				</g>
			</g>
			<g>
				<g>
					<path style="fill:#305553;" d="M214.761,157.97c14.197,0.871,28.278,1.205,42.503,1.37c1.079,0.012,1.08-1.664,0-1.676
						c-14.226-0.165-28.306-0.499-42.503-1.37C213.683,156.227,213.687,157.904,214.761,157.97L214.761,157.97z"/>
				</g>
			</g>
			<g>
				<path style="fill:#EBB5C2;" d="M221.919,162.47c0,2.994-0.363,7.506-3.544,7.506c-3.181,0-6.977-4.72-6.977-7.714
					s1.582-6.463,4.762-6.463S221.919,159.477,221.919,162.47z"/>
				<path style="fill:#E59CAD;" d="M221.411,163.979c0,2.119-0.257,5.313-2.508,5.313c-2.251,0-4.939-3.341-4.939-5.46
					c0-2.119,1.12-4.575,3.371-4.575C219.586,159.257,221.411,161.86,221.411,163.979z"/>
				<g>
					<g>
						<path style="fill:#B15373;" d="M218.648,164.089c-1.259-0.613-2.29-1.539-2.99-2.755c-0.114-0.197-0.419-0.019-0.305,0.179
							c0.728,1.264,1.807,2.244,3.117,2.882C218.674,164.493,218.853,164.188,218.648,164.089L218.648,164.089z"/>
					</g>
				</g>
				<g>
					<g>
						<path style="fill:#B15373;" d="M217.079,163.342c-0.693-0.24-1.527,0.171-1.642,0.924c-0.034,0.223,0.307,0.319,0.341,0.094
							c0.087-0.571,0.682-0.858,1.207-0.677C217.201,163.758,217.293,163.416,217.079,163.342L217.079,163.342z"/>
					</g>
				</g>
			</g>
			<g>
				<g>
					<path style="fill:#ECB6C3;" d="M171.423,298.139l60.643,28.265l11.432-6.689l-59.589-40.618
						c-2.788-1.6-6.228-2.283-9.588-1.903h0c-9.678,1.094-14.275,9.999-8.457,16.383l1.462,1.605
						C168.421,296.383,169.817,297.391,171.423,298.139z"/>
				</g>
				<path style="fill:#E59CAD;" d="M256.704,318.679c0.876-0.092,1.893-0.134,2.487,0.516c0.634,0.695,0.4,1.87-0.249,2.552
					c-0.649,0.682-1.585,0.993-2.481,1.28c-1.668,0.534-3.432,1.074-5.142,0.695c-1.665-0.369-3.897-2.481-2.361-4.083
					C250.013,318.539,255.203,318.837,256.704,318.679z"/>
				<path style="fill:#ECB6C3;" d="M236.102,318.435c2.752-2.178,6.395-3.511,9.807-2.691c2.453,0.589,4.551,2.228,6.146,4.182
					c1.595,1.955,2.744,4.227,3.881,6.479c-6.695,0.127-13.389,0.25-20.084,0.382c-2.31,0.045-5.352,0.838-4.889-2.344
					C231.275,322.301,234.555,319.727,236.102,318.435z"/>
			</g>
			<path style="fill:#414071;" d="M261.701,200.505c-0.914-0.371-1.716-1.045-2.648-1.297c-1.805,9.3-6.427,18.3-17.42,18.282
				c-6.082-0.01-12.511-1.89-16.926-6.573c-3.677-3.9-5.661-9.284-5.922-14.402c-1.003,0.111-1.938,0.294-2.935,0.402
				c0.292,6.02,2.646,11.529,6.547,16.044c4.23,4.897,11.174,7.372,17.603,7.682c0.58,0.028,1.173,0.043,1.765,0.045
				C254.297,220.728,259.557,211.12,261.701,200.505z"/>
			<g>
				<path style="fill:#ECB6C3;" d="M211.981,202.283c-6.102-5.23-14.989-1.585-18.983,7.785l-28.388,66.605
					c-3.319,7.889-1.029,17.004,4.9,19.503l0,0c4.64,1.956,10.102-0.816,13.147-6.672l31.919-64.493
					C218.563,216.955,217.42,206.944,211.981,202.283L211.981,202.283z"/>
				<path style="fill:#7178C9;" d="M181.911,232.124c1.475,0.434,2.935,0.923,4.388,1.422c3.318,1.138,6.556,2.346,9.605,4.111
					c3.671,2.126,6.9,4.808,9.775,7.844l9.44-18.897c4.341-8.691,3.024-19.527-2.992-24.602l0,0
					c-6.748-5.694-16.511-1.804-20.852,8.309L181.911,232.124z"/>
			</g>
			<path style="fill:#ECB6C3;" d="M303.819,285.897c0.116,0.085,0.232,0.171,0.349,0.257c6.669,4.929,13.337,9.858,20.006,14.787
				c1.424,1.052,3.02,2.538,2.609,4.26c-0.414,1.741-2.554,2.339-4.333,2.534c-10.406,1.138-53.537-5.254-34.753-23.261
				C293.553,278.86,298.512,281.992,303.819,285.897z"/>
			<g>
				<path style="fill:#E59CAD;" d="M306.959,301.394c-1.091,0.003-2.35,0.086-2.995,0.966c-0.689,0.94-0.245,2.357,0.645,3.111
					c0.89,0.754,2.084,1.013,3.226,1.248c2.126,0.437,4.371,0.868,6.428,0.174c2.003-0.676,4.472-3.574,2.367-5.344
					C315.184,300.333,308.83,301.39,306.959,301.394z"/>
				<path style="fill:#ECB6C3;" d="M332.309,298.36c-3.679-2.318-8.345-3.477-12.44-2.014c-2.944,1.051-5.312,3.348-7.017,5.968
					c-1.706,2.62-2.82,5.571-3.922,8.497c8.265-0.732,16.529-1.468,24.795-2.195c2.852-0.251,6.705,0.323,5.712-3.536
					C338.769,302.482,334.386,299.746,332.309,298.36z"/>
			</g>
			<g>
				<path style="fill:#343466;" d="M273.83,331.157h87.823c3.566,0,7.005-2.523,7.68-5.636l14.862-68.535
					c0.675-3.113-1.669-5.636-5.235-5.636h-87.823c-3.566,0-7.005,2.523-7.68,5.636l-14.862,68.535
					C267.919,328.634,270.263,331.157,273.83,331.157z"/>
				<path style="fill:#C5BADD;" d="M276.695,332.858h87.823c3.566,0,7.005-2.523,7.68-5.636l14.862-68.535
					c0.675-3.113-1.669-5.636-5.235-5.636h-87.823c-3.566,0-7.005,2.523-7.68,5.636l-14.862,68.535
					C270.785,330.335,273.129,332.858,276.695,332.858z"/>
				<path style="fill:#C5BADD;" d="M201.191,332.215h87.412v-6.235h-93.577v0.07C195.026,329.455,197.786,332.215,201.191,332.215z"
					/>
			</g>
		</g>
		<g>
			<path style="fill:#48487C;" d="M113.071,419.032h82.858c5.224,0,9.458-4.235,9.458-9.458v-95.653
				c0-5.224-4.235-9.458-9.458-9.458h-96.31c-5.224,0-9.458,4.235-9.458,9.458v82.201
				C90.161,408.775,100.418,419.032,113.071,419.032z"/>
			<path style="fill:#6565AA;" d="M90.161,333.405v-19.485c0-5.224,4.235-9.458,9.458-9.458h96.31c5.224,0,9.458,4.235,9.458,9.458
				v19.485H90.161z"/>
		</g>
		<g>
			<g>
				
					<rect x="113.331" y="368.159" transform="matrix(0.0088 -1 1 0.0088 -255.9655 512.1875)" style="fill:#8087DE;" width="34.109" height="34.109"/>
				
					<rect x="127.434" y="380.298" transform="matrix(0.0088 -1 1 0.0088 -242.1114 526.4132)" style="fill:#E6E6E6;" width="34.109" height="10.08"/>
			</g>
			<g>
				
					<rect x="117.388" y="364.541" transform="matrix(0.2195 -0.9756 0.9756 0.2195 -267.355 429.0168)" style="fill:#00FCC1;" width="34.109" height="34.109"/>
				
					<rect x="131.149" y="379.651" transform="matrix(0.2195 -0.9756 0.9756 0.2195 -259.6342 444.8579)" style="fill:#FFFFFF;" width="34.109" height="10.08"/>
			</g>
			<g>
				
					<rect x="128.069" y="360.098" transform="matrix(0.6259 -0.7799 0.7799 0.6259 -239.8441 254.25)" style="fill:#FFEB52;" width="34.109" height="34.109"/>
				
					<rect x="139.068" y="380.941" transform="matrix(0.626 -0.7799 0.7799 0.626 -242.6146 266.1297)" style="fill:#E6E6E6;" width="34.109" height="10.08"/>
			</g>
			<g>
				
					<rect x="139.615" y="360.801" transform="matrix(0.905 -0.4254 0.4254 0.905 -145.8436 102.5264)" style="fill:#FFB255;" width="34.109" height="34.109"/>
				
					<rect x="145.614" y="385.58" transform="matrix(0.905 -0.4254 0.4254 0.905 -150.7033 106.2906)" style="fill:#FFFFFF;" width="34.109" height="10.08"/>
			</g>
			<g>
				
					<rect x="149.677" y="366.508" transform="matrix(0.9999 0.0157 -0.0157 0.9999 6.0549 -2.5756)" style="fill:#D65656;" width="34.109" height="34.109"/>
				
					<rect x="149.455" y="392.625" transform="matrix(0.9999 0.0157 -0.0157 0.9999 6.2779 -2.5708)" style="fill:#E6E6E6;" width="34.109" height="10.08"/>
			</g>
			<path style="fill:#343466;" d="M152.651,401.276c0,1.773-1.437,3.21-3.21,3.21c-1.773,0-3.21-1.437-3.21-3.21
				c0-1.773,1.437-3.21,3.21-3.21C151.214,398.065,152.651,399.503,152.651,401.276z"/>
		</g>
		<g>
			<circle style="fill:none;stroke:#7C84FF;stroke-width:0.8949;stroke-miterlimit:10;" cx="425.204" cy="202.076" r="35.703"/>
			<path style="fill:none;stroke:#7C84FF;stroke-width:0.8949;stroke-miterlimit:10;" d="M398.388,144.377h-95.156
				c-5.711,0-10.341-4.63-10.341-10.341l0,0c0-5.711,4.63-10.341,10.341-10.341h95.156c5.711,0,10.341,4.63,10.341,10.341l0,0
				C408.728,139.747,404.099,144.377,398.388,144.377z"/>
			<path style="fill:none;stroke:#7C84FF;stroke-width:0.8949;stroke-miterlimit:10;" d="M158.446,290.264H63.29
				c-5.711,0-10.341-4.63-10.341-10.341v0c0-5.711,4.63-10.341,10.341-10.341h95.156c5.711,0,10.341,4.63,10.341,10.341v0
				C168.786,285.635,164.157,290.264,158.446,290.264z"/>
		</g>
		<g>
			
				<rect x="136.942" y="97.019" style="fill:none;stroke:#00FCC1;stroke-width:3;stroke-linecap:round;stroke-miterlimit:10;stroke-dasharray:10,20;" width="210.443" height="200.628"/>
			<rect x="129.479" y="89.003" style="fill:#00FCC1;" width="14.524" height="14.524"/>
			<rect x="129.68" y="290.386" style="fill:#00FCC1;" width="14.524" height="14.524"/>
			<rect x="340.123" y="290.386" style="fill:#00FCC1;" width="14.524" height="14.524"/>
			<rect x="338.04" y="90.234" style="fill:#00FCC1;" width="14.524" height="14.524"/>
			<polygon style="fill:#FCFFFF;" points="346.269,295.704 358.441,320.968 372.256,301.707 			"/>
		</g>
		<g>
			<g>
				<rect x="76.476" y="51.882" style="fill:#6565AA;" width="347.047" height="24.41"/>
				<path style="fill:#FFFFFF;" d="M92.143,64.077c0,1.93-1.565,3.495-3.495,3.495c-1.93,0-3.495-1.565-3.495-3.495
					c0-1.93,1.565-3.495,3.495-3.495C90.579,60.583,92.143,62.147,92.143,64.077z"/>
				<path style="fill:#FFFFFF;" d="M104.942,64.077c0,1.93-1.564,3.495-3.495,3.495c-1.93,0-3.495-1.565-3.495-3.495
					c0-1.93,1.565-3.495,3.495-3.495C103.378,60.583,104.942,62.147,104.942,64.077z"/>
				<path style="fill:#FFFFFF;" d="M117.742,64.077c0,1.93-1.565,3.495-3.495,3.495c-1.93,0-3.495-1.565-3.495-3.495
					c0-1.93,1.565-3.495,3.495-3.495C116.177,60.583,117.742,62.147,117.742,64.077z"/>
			</g>
			<g>
				<g>
					<path style="fill:#00FCC1;" d="M104.743,214.587H76.476V101.063h28.267V214.587z M79.144,211.919h22.931V103.731H79.144
						V211.919z"/>
				</g>
				<g>
					<rect x="89.275" y="103.628" style="fill:#00FCC1;" width="2.669" height="109.624"/>
				</g>
				<g>
					<rect x="77.372" y="115.131" style="fill:#00FCC1;" width="26.475" height="2.618"/>
				</g>
				<g>
					<rect x="77.372" y="128.95" style="fill:#00FCC1;" width="26.475" height="2.618"/>
				</g>
				<g>
					<rect x="77.372" y="142.769" style="fill:#00FCC1;" width="26.475" height="2.618"/>
				</g>
				<g>
					<rect x="77.372" y="156.588" style="fill:#00FCC1;" width="26.475" height="2.618"/>
				</g>
				<g>
					<rect x="77.372" y="170.406" style="fill:#00FCC1;" width="26.475" height="2.618"/>
				</g>
				<g>
					<rect x="77.372" y="184.225" style="fill:#00FCC1;" width="26.475" height="2.618"/>
				</g>
				<g>
					<rect x="77.372" y="198.044" style="fill:#00FCC1;" width="26.475" height="2.618"/>
				</g>
			</g>
		</g>
	</g>
</g>
</svg>
